<svg width="932" height="515" xmlns="http://www.w3.org/2000/svg" xmlns:xlink="http://www.w3.org/1999/xlink" xml:space="preserve" overflow="hidden"><g transform="translate(-1194 -936)"><path d="M0 0 210.507 0.000360892" stroke="#404040" stroke-width="6.875" stroke-linecap="square" stroke-miterlimit="8" stroke-dasharray="20.625 6.875" fill="none" fill-rule="evenodd" transform="matrix(-1 0 0 1 1830.01 1349.5)"/><path d="M0 0 0.000360892 292.489" stroke="#404040" stroke-width="6.875" stroke-linecap="square" stroke-miterlimit="8" stroke-dasharray="20.625 6.875" fill="none" fill-rule="evenodd" transform="matrix(1 0 0 -1 1332.5 1349.99)"/><text font-family="XITS Math,XITS Math_MSFontService,sans-serif" font-weight="400" font-size="50" transform="matrix(1 0 0 1 1234.48 1026)">𝑧</text><text font-family="XITS Math,XITS Math_MSFontService,sans-serif" font-weight="400" font-size="50" transform="matrix(1 0 0 1 1273.69 1026)">=</text><text font-family="XITS Math,XITS Math_MSFontService,sans-serif" font-weight="400" font-size="50" transform="matrix(1 0 0 1 1322.07 1026)">−</text><text font-family="XITS Math,XITS Math_MSFontService,sans-serif" font-weight="400" font-size="50" transform="matrix(1 0 0 1 1356.44 1026)">𝑤</text><text font-family="XITS Math,XITS Math_MSFontService,sans-serif" font-weight="400" font-size="50" transform="matrix(1 0 0 1 1395.4 1026)">/</text><text font-family="XITS Math,XITS Math_MSFontService,sans-serif" font-weight="400" font-size="50" transform="matrix(1 0 0 1 1409.15 1026)">2</text><path d="M0 0 0.000360892 299.057" stroke="#404040" stroke-width="6.875" stroke-linecap="square" stroke-miterlimit="8" stroke-dasharray="20.625 6.875" fill="none" fill-rule="evenodd" transform="matrix(1 0 0 -1 1619.5 1349.56)"/><path d="M1332 1345.84 1581.84 1096 1868 1096 1868 1157.16 1618.16 1407 1332 1407ZM1332 1345.84 1618.16 1345.84 1868 1096M1618.16 1345.84 1618.16 1407" stroke="#000000" stroke-width="10.3125" stroke-miterlimit="8" fill="none" fill-rule="evenodd"/><text font-family="XITS Math,XITS Math_MSFontService,sans-serif" font-weight="400" font-size="50" transform="matrix(1 0 0 1 1536.02 1026)">𝑧</text><text font-family="XITS Math,XITS Math_MSFontService,sans-serif" font-weight="400" font-size="50" transform="matrix(1 0 0 1 1575.23 1026)">=</text><text font-family="XITS Math,XITS Math_MSFontService,sans-serif" font-weight="400" font-size="50" transform="matrix(1 0 0 1 1623.61 1026)">𝑤</text><text font-family="XITS Math,XITS Math_MSFontService,sans-serif" font-weight="400" font-size="50" transform="matrix(1 0 0 1 1662.56 1026)">/</text><text font-family="XITS Math,XITS Math_MSFontService,sans-serif" font-weight="400" font-size="50" transform="matrix(1 0 0 1 1676.31 1026)">2</text><path d="M0 0 210.507 0.000360892" stroke="#404040" stroke-width="6.875" stroke-linecap="square" stroke-miterlimit="8" stroke-dasharray="20.625 6.875" fill="none" fill-rule="evenodd" transform="matrix(-1 0 0 1 1830.01 1407.5)"/><text font-family="XITS Math,XITS Math_MSFontService,sans-serif" font-weight="400" font-size="50" transform="matrix(1 0 0 1 1847.36 1359)">𝑦</text><text font-family="XITS Math,XITS Math_MSFontService,sans-serif" font-weight="400" font-size="50" transform="matrix(1 0 0 1 1886.57 1359)">=</text><text font-family="XITS Math,XITS Math_MSFontService,sans-serif" font-weight="400" font-size="50" transform="matrix(1 0 0 1 1934.95 1359)">ℎ</text><text font-family="XITS Math,XITS Math_MSFontService,sans-serif" font-weight="400" font-size="50" transform="matrix(1 0 0 1 1964.17 1359)">/</text><text font-family="XITS Math,XITS Math_MSFontService,sans-serif" font-weight="400" font-size="50" transform="matrix(1 0 0 1 1977.92 1359)">2</text><text font-family="XITS Math,XITS Math_MSFontService,sans-serif" font-weight="400" font-size="50" transform="matrix(1 0 0 1 1847.64 1418)">𝑦</text><text font-family="XITS Math,XITS Math_MSFontService,sans-serif" font-weight="400" font-size="50" transform="matrix(1 0 0 1 1886.85 1418)">=</text><text font-family="XITS Math,XITS Math_MSFontService,sans-serif" font-weight="400" font-size="50" transform="matrix(1 0 0 1 1935.22 1418)">−</text><text font-family="XITS Math,XITS Math_MSFontService,sans-serif" font-weight="400" font-size="50" transform="matrix(1 0 0 1 1969.6 1418)">ℎ</text><text font-family="XITS Math,XITS Math_MSFontService,sans-serif" font-weight="400" font-size="50" transform="matrix(1 0 0 1 1998.82 1418)">/</text><text font-family="XITS Math,XITS Math_MSFontService,sans-serif" font-weight="400" font-size="50" transform="matrix(1 0 0 1 2012.57 1418)">2</text><path d="M1.75577-1.47276 72.2099 82.52 68.6983 85.4655-1.75577 1.47276ZM70.4541 83.9928 75.0977 68.1332 82.2362 98.0389 54.0285 85.8063Z" transform="matrix(1 0 0 -1 1936.5 1123.54)"/><path d="M2.29167-7.98334e-06 2.29196 85.263-2.29137 85.263-2.29167 7.98334e-06ZM0.000297026 85.263 13.7503 76.0963 0.000360892 103.596-13.7497 76.0964Z" transform="matrix(1 0 0 -1 1936.5 1123.1)"/><path d="M1933.5 1122.21 2026.57 1122.21 2026.57 1126.79 1933.5 1126.79ZM2026.57 1124.5 2017.41 1110.75 2044.91 1124.5 2017.41 1138.25Z"/><text font-family="XITS Math,XITS Math_MSFontService,sans-serif" font-weight="400" font-size="50" transform="matrix(1 0 0 1 2060.96 1137)">𝑧</text><text font-family="XITS Math,XITS Math_MSFontService,sans-serif" font-weight="400" font-size="50" transform="matrix(1 0 0 1 2017.09 1017)">𝑥</text><text font-family="XITS Math,XITS Math_MSFontService,sans-serif" font-weight="400" font-size="50" transform="matrix(1 0 0 1 1920.03 997)">𝑦</text><rect x="1335" y="1349" width="278" height="53.0002" fill="#A5A5A5" fill-opacity="0.6"/></g></svg>